<svg width="33" height="31" viewBox="0 0 33 31" fill="none" xmlns="http://www.w3.org/2000/svg">
<path d="M4.53404 11.2143C5.67621 7.45264 8.20829 4.51846 11.3765 2.81912C14.5446 1.11978 18.3544 0.652219 22.0503 1.8195C25.7463 2.98679 28.6291 5.57164 30.3019 8.8012C31.9746 12.0307 32.4391 15.9121 31.2984 19.6752C30.1576 23.4382 27.6241 26.371 24.4559 28.0704C21.2878 29.7697 17.478 30.2373 13.7821 29.07C11.6907 28.4079 9.85239 27.2906 8.40597 25.9042L4.15902 22.141L4.36101 27.4002C4.39124 28.1871 3.78879 28.8499 3.01626 28.8796C2.24372 28.9092 1.59221 28.2946 1.56199 27.5077L1.23356 18.9567C1.23274 18.9353 1.23192 18.9139 1.23255 18.8939C1.23325 18.7297 1.26082 18.5716 1.31127 18.4254C1.36166 18.2779 1.43758 18.1379 1.53778 18.0098C1.55386 17.9907 1.56989 17.97 1.58602 17.9523C1.70818 17.812 1.85791 17.6963 2.02715 17.6141C2.1909 17.535 2.37125 17.4867 2.56287 17.4765C2.56847 17.4762 2.57267 17.4761 2.57826 17.4759L10.9753 17.1534C11.7479 17.1237 12.3994 17.7383 12.4296 18.5252C12.4598 19.3122 11.8573 19.9735 11.0848 20.0032L6.22009 20.19L10.3249 23.8288C11.4585 24.916 12.9239 25.812 14.608 26.3441C17.5648 27.2785 20.6087 26.906 23.1466 25.545C25.6844 24.184 27.7079 21.839 28.6211 18.8285C29.5342 15.818 29.1642 12.7169 27.8245 10.1299C26.4847 7.54291 24.1797 5.4784 21.2229 4.544C18.2661 3.6096 15.2222 3.98208 12.6844 5.34311C10.1465 6.70413 8.12301 9.0491 7.20988 12.0596C6.9809 12.8122 6.19673 13.2321 5.45896 12.9992C4.72119 12.7662 4.3064 11.9655 4.53404 11.2143Z" fill="#63A800"/>
<path d="M14.2929 13.389C14.5989 13.389 14.8369 13.2757 15.0069 13.049C15.1769 12.811 15.2619 12.488 15.2619 12.08C15.2619 11.672 15.1769 11.3547 15.0069 11.128C14.8369 10.9014 14.5989 10.788 14.2929 10.788C13.9756 10.788 13.7263 10.9014 13.5449 11.128C13.3749 11.3547 13.2899 11.6664 13.2899 12.063C13.2899 12.4824 13.3749 12.811 13.5449 13.049C13.7263 13.2757 13.9756 13.389 14.2929 13.389ZM14.2759 15.157C13.2899 15.157 12.5079 14.868 11.9299 14.29C11.3519 13.712 11.0629 12.9754 11.0629 12.08C11.0629 11.2187 11.3689 10.499 11.9809 9.92103C12.5929 9.34303 13.3636 9.05403 14.2929 9.05403C15.2109 9.05403 15.9759 9.33736 16.5879 9.90403C17.1999 10.4594 17.5059 11.1677 17.5059 12.029C17.5059 12.9357 17.2113 13.6837 16.6219 14.273C16.0326 14.8624 15.2506 15.157 14.2759 15.157ZM12.6439 21.345L21.0759 9.19003H22.7419L14.3099 21.345H12.6439ZM21.0589 19.764C21.7163 19.764 22.0449 19.3277 22.0449 18.455C22.0449 18.0584 21.9599 17.7467 21.7899 17.52C21.6199 17.2934 21.3763 17.18 21.0589 17.18C20.7529 17.18 20.5093 17.2934 20.3279 17.52C20.1579 17.7467 20.0729 18.0584 20.0729 18.455C20.0729 18.8744 20.1579 19.1974 20.3279 19.424C20.5093 19.6507 20.7529 19.764 21.0589 19.764ZM21.0419 21.549C20.0559 21.549 19.2739 21.26 18.6959 20.682C18.1179 20.104 17.8289 19.3674 17.8289 18.472C17.8289 17.6107 18.1349 16.891 18.7469 16.313C19.3703 15.735 20.1409 15.446 21.0589 15.446C21.9883 15.446 22.7533 15.7237 23.3539 16.279C23.9659 16.8344 24.2719 17.5484 24.2719 18.421C24.2719 19.3277 23.9773 20.0757 23.3879 20.665C22.7986 21.2544 22.0166 21.549 21.0419 21.549Z" fill="#63A800"/>
</svg>
