<svg width="203" height="48" viewBox="0 0 203 48" fill="none" xmlns="http://www.w3.org/2000/svg">
<path fill-rule="evenodd" clip-rule="evenodd" d="M96.1196 3.90857L101.108 4.99885L100.276 3L104.895 6.17999L105.265 3.90857L108.22 8.63313L109.052 6.90685L110.068 12.0857L111.546 10.7228L110.53 16.0834L112.285 15.4474L109.388 19.8555L111.032 20.1187L106.827 23.0517L108.22 23.8414L103.271 24.7814L104.418 26.1727L99.4864 25.2703L99.9452 27L95.2428 23.8414L94.9752 25.7215L92.4138 21.6228L91.458 23.0517L90.5405 17.9377L89.2025 19.0282L90.0817 14.4783L88.2849 14.9671L91.458 10.2667H89.4318L93.6372 7.48413L91.9933 6.43125L97.424 5.4321L96.1196 3.90857ZM93.4621 15.1858C93.4621 10.2529 97.6666 8.31225 100.42 8.34184C103.174 8.37143 106.958 10.5161 107.027 15.1858C106.958 19.8555 102.612 21.6228 100.42 21.6228C98.0902 21.6228 93.4621 20.1187 93.4621 15.1858Z" fill="white"/>
<path d="M0.968506 5.17578H23.5271V9.96094H0.968506V5.17578ZM9.17163 10.6445L15.324 12.0117V25H9.17163V10.6445ZM27.1365 9.14062H40.8083V12.9688H28.7771V21.1719H40.8083V25H27.1365C24.949 25 23.8552 23.9062 23.8552 21.7188V12.4219C23.8552 10.2344 24.949 9.14062 27.1365 9.14062ZM38.074 15.1562L39.7146 18.9844H30.9646L29.324 15.1562H38.074ZM53.6599 14.6094L58.5818 9.14062H64.5974L57.5974 16.7969L65.1443 25H58.5818L53.6599 19.5312L48.738 25H42.1755L49.7224 16.7969L42.7224 9.14062H48.738L53.6599 14.6094ZM66.5115 9.14062H71.4333V25H66.5115V9.14062ZM86.199 9.14062V25H81.2771V18.9844H73.6208L71.9802 15.1562H81.2771V9.14062H86.199ZM119.011 5.17578H136.101V9.96094H121.062V25H114.91V9.27734C114.91 6.54297 116.277 5.17578 119.011 5.17578ZM152.234 9.14062C155.515 9.14062 157.156 10.599 157.156 13.5156V16.7969C157.156 19.349 155.625 20.625 152.562 20.625H144.578L142.937 16.7969H150.047C151.505 16.7969 152.234 16.25 152.234 15.1562V14.6094C152.234 13.5156 151.505 12.9688 150.047 12.9688H142.39V25H137.469V9.14062H152.234ZM158.523 25V9.14062H163.445V20.0781L171.648 10.7812C172.742 9.6875 174.018 9.14062 175.476 9.14062H179.851V25H174.929V14.0625L166.726 23.3594C165.633 24.4531 164.357 25 162.898 25H158.523ZM181.219 9.14062H186.14V25H181.219V9.14062ZM200.906 9.14062V25H195.984V18.9844H188.328L186.687 15.1562H195.984V9.14062H200.906Z" fill="white"/>
<path d="M22.3069 45H21.0469V36.11H17.9249V35.004H25.4149V36.11H22.3069V45ZM28.6678 37.356C29.3118 37.356 29.8625 37.496 30.3198 37.776C30.7865 38.056 31.1412 38.4527 31.3838 38.966C31.6358 39.47 31.7618 40.0627 31.7618 40.744V41.486H26.6238C26.6425 42.3353 26.8572 42.984 27.2678 43.432C27.6878 43.8707 28.2712 44.09 29.0178 44.09C29.4938 44.09 29.9138 44.048 30.2778 43.964C30.6512 43.8707 31.0338 43.74 31.4258 43.572V44.65C31.0432 44.818 30.6652 44.9393 30.2918 45.014C29.9185 45.098 29.4752 45.14 28.9618 45.14C28.2525 45.14 27.6225 44.9953 27.0718 44.706C26.5305 44.4167 26.1058 43.9873 25.7978 43.418C25.4992 42.8393 25.3498 42.1347 25.3498 41.304C25.3498 40.4827 25.4852 39.778 25.7558 39.19C26.0358 38.602 26.4232 38.1493 26.9178 37.832C27.4218 37.5147 28.0052 37.356 28.6678 37.356ZM28.6538 38.364C28.0658 38.364 27.5992 38.5553 27.2538 38.938C26.9178 39.3113 26.7172 39.834 26.6518 40.506H30.4738C30.4645 39.8713 30.3152 39.358 30.0258 38.966C29.7365 38.5647 29.2792 38.364 28.6538 38.364ZM35.4502 41.164L32.8602 37.496H34.2602L36.1922 40.324L38.1102 37.496H39.4962L36.9062 41.164L39.6362 45H38.2362L36.1922 42.004L34.1202 45H32.7342L35.4502 41.164ZM42.3143 37.496V40.618H46.3883V37.496H47.6203V45H46.3883V41.654H42.3143V45H41.0823V37.496H42.3143ZM51.1584 42.074C51.1584 42.186 51.1537 42.354 51.1444 42.578C51.1351 42.802 51.1211 43.026 51.1024 43.25C51.0931 43.474 51.0837 43.6513 51.0744 43.782L55.0924 37.496H56.6044V45H55.4564V40.576C55.4564 40.4267 55.4564 40.2307 55.4564 39.988C55.4657 39.7453 55.4751 39.5073 55.4844 39.274C55.4937 39.0313 55.5031 38.8493 55.5124 38.728L51.5224 45H49.9964V37.496H51.1584V42.074ZM63.4305 37.496H64.7745L61.5685 41.108L65.0405 45H63.6125L60.2245 41.192V45H58.9925V37.496H60.2245V41.136L63.4305 37.496ZM69.2446 37.37C70.1593 37.37 70.836 37.5707 71.2746 37.972C71.7133 38.3733 71.9326 39.0127 71.9326 39.89V45H71.0366L70.7986 43.936H70.7426C70.416 44.3467 70.0706 44.65 69.7066 44.846C69.352 45.042 68.8573 45.14 68.2226 45.14C67.5413 45.14 66.9766 44.9627 66.5286 44.608C66.0806 44.244 65.8566 43.6793 65.8566 42.914C65.8566 42.1673 66.1506 41.5933 66.7386 41.192C67.3266 40.7813 68.232 40.5573 69.4546 40.52L70.7286 40.478V40.03C70.7286 39.4047 70.5933 38.9707 70.3226 38.728C70.052 38.4853 69.6693 38.364 69.1746 38.364C68.7826 38.364 68.4093 38.4247 68.0546 38.546C67.7 38.658 67.3686 38.7887 67.0606 38.938L66.6826 38.014C67.0093 37.8367 67.3966 37.6873 67.8446 37.566C68.2926 37.4353 68.7593 37.37 69.2446 37.37ZM69.6086 41.374C68.6753 41.4113 68.0266 41.5607 67.6626 41.822C67.308 42.0833 67.1306 42.452 67.1306 42.928C67.1306 43.348 67.2566 43.656 67.5086 43.852C67.77 44.048 68.1013 44.146 68.5026 44.146C69.1373 44.146 69.6646 43.9733 70.0846 43.628C70.5046 43.2733 70.7146 42.732 70.7146 42.004V41.332L69.6086 41.374ZM83.1172 37.496V43.964H84.2092V47.604H83.0192V45H77.7972V47.604H76.6212V43.964H77.2232C77.8672 43.0773 78.3479 42.0693 78.6652 40.94C78.9919 39.8013 79.1599 38.6533 79.1692 37.496H83.1172ZM80.2612 38.462C80.2239 39.0967 80.1259 39.7547 79.9672 40.436C79.8086 41.108 79.6032 41.752 79.3512 42.368C79.1086 42.984 78.8239 43.516 78.4972 43.964H81.9272V38.462H80.2612ZM91.392 45H90.146V38.518H87.934C87.8127 40.0953 87.6447 41.3693 87.43 42.34C87.2153 43.3013 86.9307 44.0013 86.576 44.44C86.2213 44.8787 85.7733 45.098 85.232 45.098C85.1107 45.098 84.9893 45.0887 84.868 45.07C84.756 45.0607 84.6627 45.0373 84.588 45V44.076C84.644 44.0947 84.7047 44.1087 84.77 44.118C84.8353 44.1273 84.9007 44.132 84.966 44.132C85.47 44.132 85.8713 43.5953 86.17 42.522C86.478 41.4487 86.7113 39.7733 86.87 37.496H91.392V45ZM94.2357 45H92.8077L94.9497 41.85C94.6604 41.7753 94.3804 41.6587 94.1097 41.5C93.8391 41.332 93.6197 41.1033 93.4517 40.814C93.2837 40.5153 93.1997 40.1467 93.1997 39.708C93.1997 38.9893 93.4424 38.4433 93.9277 38.07C94.4131 37.6873 95.0571 37.496 95.8597 37.496H99.2197V45H97.9877V42.018H96.1677L94.2357 45ZM94.3897 39.722C94.3897 40.1513 94.5484 40.4733 94.8657 40.688C95.1924 40.8933 95.6451 40.996 96.2237 40.996H97.9877V38.518H95.9857C95.4164 38.518 95.0057 38.63 94.7537 38.854C94.5111 39.078 94.3897 39.3673 94.3897 39.722ZM110.461 37.496V43.964H111.553V47.604H110.363V45H105.141V47.604H103.965V43.964H104.567C105.211 43.0773 105.692 42.0693 106.009 40.94C106.336 39.8013 106.504 38.6533 106.513 37.496H110.461ZM107.605 38.462C107.568 39.0967 107.47 39.7547 107.311 40.436C107.152 41.108 106.947 41.752 106.695 42.368C106.452 42.984 106.168 43.516 105.841 43.964H109.271V38.462H107.605ZM119.548 41.234C119.548 42.4753 119.23 43.4367 118.596 44.118C117.97 44.7993 117.121 45.14 116.048 45.14C115.385 45.14 114.792 44.9907 114.27 44.692C113.756 44.384 113.35 43.9407 113.052 43.362C112.753 42.774 112.604 42.0647 112.604 41.234C112.604 39.9927 112.916 39.036 113.542 38.364C114.167 37.692 115.016 37.356 116.09 37.356C116.771 37.356 117.368 37.51 117.882 37.818C118.404 38.1167 118.81 38.5553 119.1 39.134C119.398 39.7033 119.548 40.4033 119.548 41.234ZM113.878 41.234C113.878 42.1207 114.05 42.8253 114.396 43.348C114.75 43.8613 115.31 44.118 116.076 44.118C116.832 44.118 117.387 43.8613 117.742 43.348C118.096 42.8253 118.274 42.1207 118.274 41.234C118.274 40.3473 118.096 39.652 117.742 39.148C117.387 38.644 116.827 38.392 116.062 38.392C115.296 38.392 114.741 38.644 114.396 39.148C114.05 39.652 113.878 40.3473 113.878 41.234ZM129.55 37.496V45H128.444V40.212C128.444 40.016 128.449 39.8107 128.458 39.596C128.477 39.3813 128.496 39.1713 128.514 38.966H128.472L126.022 45H124.986L122.606 38.966H122.564C122.592 39.386 122.606 39.8153 122.606 40.254V45H121.5V37.496H123.138L125.504 43.53L127.912 37.496H129.55ZM134.788 37.37C135.702 37.37 136.379 37.5707 136.818 37.972C137.256 38.3733 137.476 39.0127 137.476 39.89V45H136.58L136.342 43.936H136.286C135.959 44.3467 135.614 44.65 135.25 44.846C134.895 45.042 134.4 45.14 133.766 45.14C133.084 45.14 132.52 44.9627 132.072 44.608C131.624 44.244 131.4 43.6793 131.4 42.914C131.4 42.1673 131.694 41.5933 132.282 41.192C132.87 40.7813 133.775 40.5573 134.998 40.52L136.272 40.478V40.03C136.272 39.4047 136.136 38.9707 135.866 38.728C135.595 38.4853 135.212 38.364 134.718 38.364C134.326 38.364 133.952 38.4247 133.598 38.546C133.243 38.658 132.912 38.7887 132.604 38.938L132.226 38.014C132.552 37.8367 132.94 37.6873 133.388 37.566C133.836 37.4353 134.302 37.37 134.788 37.37ZM135.152 41.374C134.218 41.4113 133.57 41.5607 133.206 41.822C132.851 42.0833 132.674 42.452 132.674 42.928C132.674 43.348 132.8 43.656 133.052 43.852C133.313 44.048 133.644 44.146 134.046 44.146C134.68 44.146 135.208 43.9733 135.628 43.628C136.048 43.2733 136.258 42.732 136.258 42.004V41.332L135.152 41.374ZM144.25 42.074C144.25 42.186 144.246 42.354 144.236 42.578C144.227 42.802 144.213 43.026 144.194 43.25C144.185 43.474 144.176 43.6513 144.166 43.782L148.184 37.496H149.696V45H148.548V40.576C148.548 40.4267 148.548 40.2307 148.548 39.988C148.558 39.7453 148.567 39.5073 148.576 39.274C148.586 39.0313 148.595 38.8493 148.604 38.728L144.614 45H143.088V37.496H144.25V42.074ZM158.389 45.14C157.727 45.14 157.134 45.0047 156.611 44.734C156.098 44.4633 155.692 44.0433 155.393 43.474C155.104 42.9047 154.959 42.1767 154.959 41.29C154.959 40.366 155.113 39.6147 155.421 39.036C155.729 38.4573 156.145 38.0327 156.667 37.762C157.199 37.4913 157.801 37.356 158.473 37.356C158.856 37.356 159.225 37.398 159.579 37.482C159.934 37.5567 160.223 37.65 160.447 37.762L160.069 38.784C159.845 38.7 159.584 38.6207 159.285 38.546C158.987 38.4713 158.707 38.434 158.445 38.434C156.971 38.434 156.233 39.3813 156.233 41.276C156.233 42.1813 156.411 42.8767 156.765 43.362C157.129 43.838 157.666 44.076 158.375 44.076C158.786 44.076 159.145 44.034 159.453 43.95C159.771 43.866 160.06 43.7633 160.321 43.642V44.734C160.069 44.8647 159.789 44.9627 159.481 45.028C159.183 45.1027 158.819 45.14 158.389 45.14ZM164.948 37.37C165.862 37.37 166.539 37.5707 166.978 37.972C167.416 38.3733 167.636 39.0127 167.636 39.89V45H166.74L166.502 43.936H166.446C166.119 44.3467 165.774 44.65 165.41 44.846C165.055 45.042 164.56 45.14 163.926 45.14C163.244 45.14 162.68 44.9627 162.232 44.608C161.784 44.244 161.56 43.6793 161.56 42.914C161.56 42.1673 161.854 41.5933 162.442 41.192C163.03 40.7813 163.935 40.5573 165.158 40.52L166.432 40.478V40.03C166.432 39.4047 166.296 38.9707 166.026 38.728C165.755 38.4853 165.372 38.364 164.878 38.364C164.486 38.364 164.112 38.4247 163.758 38.546C163.403 38.658 163.072 38.7887 162.764 38.938L162.386 38.014C162.712 37.8367 163.1 37.6873 163.548 37.566C163.996 37.4353 164.462 37.37 164.948 37.37ZM165.312 41.374C164.378 41.4113 163.73 41.5607 163.366 41.822C163.011 42.0833 162.834 42.452 162.834 42.928C162.834 43.348 162.96 43.656 163.212 43.852C163.473 44.048 163.804 44.146 164.206 44.146C164.84 44.146 165.368 43.9733 165.788 43.628C166.208 43.2733 166.418 42.732 166.418 42.004V41.332L165.312 41.374ZM175.525 37.496V43.964H176.617V47.604H175.427V45H170.205V47.604H169.029V43.964H169.631C170.275 43.0773 170.756 42.0693 171.073 40.94C171.4 39.8013 171.568 38.6533 171.577 37.496H175.525ZM172.669 38.462C172.632 39.0967 172.534 39.7547 172.375 40.436C172.217 41.108 172.011 41.752 171.759 42.368C171.517 42.984 171.232 43.516 170.905 43.964H174.335V38.462H172.669ZM180.93 37.37C181.845 37.37 182.522 37.5707 182.96 37.972C183.399 38.3733 183.618 39.0127 183.618 39.89V45H182.722L182.484 43.936H182.428C182.102 44.3467 181.756 44.65 181.392 44.846C181.038 45.042 180.543 45.14 179.908 45.14C179.227 45.14 178.662 44.9627 178.214 44.608C177.766 44.244 177.542 43.6793 177.542 42.914C177.542 42.1673 177.836 41.5933 178.424 41.192C179.012 40.7813 179.918 40.5573 181.14 40.52L182.414 40.478V40.03C182.414 39.4047 182.279 38.9707 182.008 38.728C181.738 38.4853 181.355 38.364 180.86 38.364C180.468 38.364 180.095 38.4247 179.74 38.546C179.386 38.658 179.054 38.7887 178.746 38.938L178.368 38.014C178.695 37.8367 179.082 37.6873 179.53 37.566C179.978 37.4353 180.445 37.37 180.93 37.37ZM181.294 41.374C180.361 41.4113 179.712 41.5607 179.348 41.822C178.994 42.0833 178.816 42.452 178.816 42.928C178.816 43.348 178.942 43.656 179.194 43.852C179.456 44.048 179.787 44.146 180.188 44.146C180.823 44.146 181.35 43.9733 181.77 43.628C182.19 43.2733 182.4 42.732 182.4 42.004V41.332L181.294 41.374Z" fill="white"/>
</svg>
