<svg width="296" height="83" viewBox="0 0 296 83" fill="none" xmlns="http://www.w3.org/2000/svg">
<rect x="0.713287" y="0.296875" width="295" height="82" rx="15" fill="black" fill-opacity="0.7"/>
<path fill-rule="evenodd" clip-rule="evenodd" d="M143.215 15.2667L149.201 16.5967L148.203 14.1583L153.745 18.0375L154.188 15.2667L157.735 21.0301L158.732 18.9242L159.951 25.2418L161.725 23.5793L160.506 30.1185L162.612 29.3427L159.136 34.7199L161.108 35.041L156.062 38.619L157.735 39.5823L151.796 40.729L153.172 42.4263L147.255 41.3254L147.806 43.4354L142.163 39.5823L141.842 41.8758L138.769 36.8759L137.622 38.619L136.521 32.3805L134.916 33.7108L135.971 28.1604L133.815 28.7567L137.622 23.0229H135.191L140.237 19.6284L138.264 18.344L144.781 17.1252L143.215 15.2667ZM140.027 29.0235C140.027 23.006 145.072 20.6386 148.376 20.6747C151.68 20.7108 156.22 23.3271 156.303 29.0235C156.22 34.7199 151.006 36.8759 148.376 36.8759C145.58 36.8759 140.027 35.041 140.027 29.0235Z" fill="white"/>
<path d="M19.5922 14.8086H48.5961V20.9609H19.5922V14.8086ZM30.1391 21.8398L38.0492 23.5977V40.2969H30.1391V21.8398ZM53.2367 19.9062H70.8148V24.8281H55.3461V35.375H70.8148V40.2969H53.2367C50.4242 40.2969 49.018 38.8906 49.018 36.0781V24.125C49.018 21.3125 50.4242 19.9062 53.2367 19.9062ZM67.2992 27.6406L69.4086 32.5625H58.1586L56.0492 27.6406H67.2992ZM87.3383 26.9375L93.6664 19.9062H101.401L92.4008 29.75L102.104 40.2969H93.6664L87.3383 33.2656L81.0102 40.2969H72.5727L82.2758 29.75L73.2758 19.9062H81.0102L87.3383 26.9375ZM103.862 19.9062H110.19V40.2969H103.862V19.9062ZM129.174 19.9062V40.2969H122.846V32.5625H113.002L110.893 27.6406H122.846V19.9062H129.174ZM171.362 14.8086H193.334V20.9609H173.998V40.2969H166.088V20.082C166.088 16.5664 167.846 14.8086 171.362 14.8086ZM214.077 19.9062C218.295 19.9062 220.405 21.7812 220.405 25.5312V29.75C220.405 33.0312 218.436 34.6719 214.498 34.6719H204.233L202.123 29.75H211.264C213.139 29.75 214.077 29.0469 214.077 27.6406V26.9375C214.077 25.5312 213.139 24.8281 211.264 24.8281H201.42V40.2969H195.092V19.9062H214.077ZM222.163 40.2969V19.9062H228.491V33.9688L239.038 22.0156C240.444 20.6094 242.084 19.9062 243.959 19.9062H249.584V40.2969H243.256V26.2344L232.709 38.1875C231.303 39.5938 229.663 40.2969 227.788 40.2969H222.163ZM251.342 19.9062H257.67V40.2969H251.342V19.9062ZM276.655 19.9062V40.2969H270.327V32.5625H260.483L258.373 27.6406H270.327V19.9062H276.655Z" fill="white"/>
<path d="M46.5273 67.2969H44.9073V55.8669H40.8933V54.4449H50.5233V55.8669H46.5273V67.2969ZM54.7056 57.4689C55.5336 57.4689 56.2416 57.6489 56.8296 58.0089C57.4296 58.3689 57.8856 58.8789 58.1976 59.5389C58.5216 60.1869 58.6836 60.9489 58.6836 61.8249V62.7789H52.0776C52.1016 63.8709 52.3776 64.7049 52.9056 65.2809C53.4456 65.8449 54.1956 66.1269 55.1556 66.1269C55.7676 66.1269 56.3076 66.0729 56.7756 65.9649C57.2556 65.8449 57.7476 65.6769 58.2516 65.4609V66.8469C57.7596 67.0629 57.2736 67.2189 56.7936 67.3149C56.3136 67.4229 55.7436 67.4769 55.0836 67.4769C54.1716 67.4769 53.3616 67.2909 52.6536 66.9189C51.9576 66.5469 51.4116 65.9949 51.0156 65.2629C50.6316 64.5189 50.4396 63.6129 50.4396 62.5449C50.4396 61.4889 50.6136 60.5829 50.9616 59.8269C51.3216 59.0709 51.8196 58.4889 52.4556 58.0809C53.1036 57.6729 53.8536 57.4689 54.7056 57.4689ZM54.6876 58.7649C53.9316 58.7649 53.3316 59.0109 52.8876 59.5029C52.4556 59.9829 52.1976 60.6549 52.1136 61.5189H57.0276C57.0156 60.7029 56.8236 60.0429 56.4516 59.5389C56.0796 59.0229 55.4916 58.7649 54.6876 58.7649ZM63.4257 62.3649L60.0957 57.6489H61.8957L64.3797 61.2849L66.8457 57.6489H68.6277L65.2977 62.3649L68.8077 67.2969H67.0077L64.3797 63.4449L61.7157 67.2969H59.9337L63.4257 62.3649ZM72.2511 57.6489V61.6629H77.4891V57.6489H79.0731V67.2969H77.4891V62.9949H72.2511V67.2969H70.6671V57.6489H72.2511ZM83.622 63.5349C83.622 63.6789 83.616 63.8949 83.604 64.1829C83.592 64.4709 83.574 64.7589 83.55 65.0469C83.538 65.3349 83.526 65.5629 83.514 65.7309L88.68 57.6489H90.624V67.2969H89.148V61.6089C89.148 61.4169 89.148 61.1649 89.148 60.8529C89.16 60.5409 89.172 60.2349 89.184 59.9349C89.196 59.6229 89.208 59.3889 89.22 59.2329L84.09 67.2969H82.128V57.6489H83.622V63.5349ZM99.4004 57.6489H101.128L97.0064 62.2929L101.47 67.2969H99.6344L95.2784 62.4009V67.2969H93.6944V57.6489H95.2784V62.3289L99.4004 57.6489ZM106.876 57.4869C108.052 57.4869 108.922 57.7449 109.486 58.2609C110.05 58.7769 110.332 59.5989 110.332 60.7269V67.2969H109.18L108.874 65.9289H108.802C108.382 66.4569 107.938 66.8469 107.47 67.0989C107.014 67.3509 106.378 67.4769 105.562 67.4769C104.686 67.4769 103.96 67.2489 103.384 66.7929C102.808 66.3249 102.52 65.5989 102.52 64.6149C102.52 63.6549 102.898 62.9169 103.654 62.4009C104.41 61.8729 105.574 61.5849 107.146 61.5369L108.784 61.4829V60.9069C108.784 60.1029 108.61 59.5449 108.262 59.2329C107.914 58.9209 107.422 58.7649 106.786 58.7649C106.282 58.7649 105.802 58.8429 105.346 58.9989C104.89 59.1429 104.464 59.3109 104.068 59.5029L103.582 58.3149C104.002 58.0869 104.5 57.8949 105.076 57.7389C105.652 57.5709 106.252 57.4869 106.876 57.4869ZM107.344 62.6349C106.144 62.6829 105.31 62.8749 104.842 63.2109C104.386 63.5469 104.158 64.0209 104.158 64.6329C104.158 65.1729 104.32 65.5689 104.644 65.8209C104.98 66.0729 105.406 66.1989 105.922 66.1989C106.738 66.1989 107.416 65.9769 107.956 65.5329C108.496 65.0769 108.766 64.3809 108.766 63.4449V62.5809L107.344 62.6349ZM124.712 57.6489V65.9649H126.116V70.6449H124.586V67.2969H117.872V70.6449H116.36V65.9649H117.134C117.962 64.8249 118.58 63.5289 118.988 62.0769C119.408 60.6129 119.624 59.1369 119.636 57.6489H124.712ZM121.04 58.8909C120.992 59.7069 120.866 60.5529 120.662 61.4289C120.458 62.2929 120.194 63.1209 119.87 63.9129C119.558 64.7049 119.192 65.3889 118.772 65.9649H123.182V58.8909H121.04ZM135.351 67.2969H133.749V58.9629H130.905C130.749 60.9909 130.533 62.6289 130.257 63.8769C129.981 65.1129 129.615 66.0129 129.159 66.5769C128.703 67.1409 128.127 67.4229 127.431 67.4229C127.275 67.4229 127.119 67.4109 126.963 67.3869C126.819 67.3749 126.699 67.3449 126.603 67.2969V66.1089C126.675 66.1329 126.753 66.1509 126.837 66.1629C126.921 66.1749 127.005 66.1809 127.089 66.1809C127.737 66.1809 128.253 65.4909 128.637 64.1109C129.033 62.7309 129.333 60.5769 129.537 57.6489H135.351V67.2969ZM139.007 67.2969H137.171L139.925 63.2469C139.553 63.1509 139.193 63.0009 138.845 62.7969C138.497 62.5809 138.215 62.2869 137.999 61.9149C137.783 61.5309 137.675 61.0569 137.675 60.4929C137.675 59.5689 137.987 58.8669 138.611 58.3869C139.235 57.8949 140.063 57.6489 141.095 57.6489H145.415V67.2969H143.831V63.4629H141.491L139.007 67.2969ZM139.205 60.5109C139.205 61.0629 139.409 61.4769 139.817 61.7529C140.237 62.0169 140.819 62.1489 141.563 62.1489H143.831V58.9629H141.257C140.525 58.9629 139.997 59.1069 139.673 59.3949C139.361 59.6829 139.205 60.0549 139.205 60.5109ZM159.868 57.6489V65.9649H161.272V70.6449H159.742V67.2969H153.028V70.6449H151.516V65.9649H152.29C153.118 64.8249 153.736 63.5289 154.144 62.0769C154.564 60.6129 154.78 59.1369 154.792 57.6489H159.868ZM156.196 58.8909C156.148 59.7069 156.022 60.5529 155.818 61.4289C155.614 62.2929 155.35 63.1209 155.026 63.9129C154.714 64.7049 154.348 65.3889 153.928 65.9649H158.338V58.8909H156.196ZM171.551 62.4549C171.551 64.0509 171.143 65.2869 170.327 66.1629C169.523 67.0389 168.431 67.4769 167.051 67.4769C166.199 67.4769 165.437 67.2849 164.765 66.9009C164.105 66.5049 163.583 65.9349 163.199 65.1909C162.815 64.4349 162.623 63.5229 162.623 62.4549C162.623 60.8589 163.025 59.6289 163.829 58.7649C164.633 57.9009 165.725 57.4689 167.105 57.4689C167.981 57.4689 168.749 57.6669 169.409 58.0629C170.081 58.4469 170.603 59.0109 170.975 59.7549C171.359 60.4869 171.551 61.3869 171.551 62.4549ZM164.261 62.4549C164.261 63.5949 164.483 64.5009 164.927 65.1729C165.383 65.8329 166.103 66.1629 167.087 66.1629C168.059 66.1629 168.773 65.8329 169.229 65.1729C169.685 64.5009 169.913 63.5949 169.913 62.4549C169.913 61.3149 169.685 60.4209 169.229 59.7729C168.773 59.1249 168.053 58.8009 167.069 58.8009C166.085 58.8009 165.371 59.1249 164.927 59.7729C164.483 60.4209 164.261 61.3149 164.261 62.4549ZM184.412 57.6489V67.2969H182.99V61.1409C182.99 60.8889 182.996 60.6249 183.008 60.3489C183.032 60.0729 183.056 59.8029 183.08 59.5389H183.026L179.876 67.2969H178.544L175.484 59.5389H175.43C175.466 60.0789 175.484 60.6309 175.484 61.1949V67.2969H174.062V57.6489H176.168L179.21 65.4069L182.306 57.6489H184.412ZM191.145 57.4869C192.321 57.4869 193.191 57.7449 193.755 58.2609C194.319 58.7769 194.601 59.5989 194.601 60.7269V67.2969H193.449L193.143 65.9289H193.071C192.651 66.4569 192.207 66.8469 191.739 67.0989C191.283 67.3509 190.647 67.4769 189.831 67.4769C188.955 67.4769 188.229 67.2489 187.653 66.7929C187.077 66.3249 186.789 65.5989 186.789 64.6149C186.789 63.6549 187.167 62.9169 187.923 62.4009C188.679 61.8729 189.843 61.5849 191.415 61.5369L193.053 61.4829V60.9069C193.053 60.1029 192.879 59.5449 192.531 59.2329C192.183 58.9209 191.691 58.7649 191.055 58.7649C190.551 58.7649 190.071 58.8429 189.615 58.9989C189.159 59.1429 188.733 59.3109 188.337 59.5029L187.851 58.3149C188.271 58.0869 188.769 57.8949 189.345 57.7389C189.921 57.5709 190.521 57.4869 191.145 57.4869ZM191.613 62.6349C190.413 62.6829 189.579 62.8749 189.111 63.2109C188.655 63.5469 188.427 64.0209 188.427 64.6329C188.427 65.1729 188.589 65.5689 188.913 65.8209C189.249 66.0729 189.675 66.1989 190.191 66.1989C191.007 66.1989 191.685 65.9769 192.225 65.5329C192.765 65.0769 193.035 64.3809 193.035 63.4449V62.5809L191.613 62.6349ZM203.311 63.5349C203.311 63.6789 203.305 63.8949 203.293 64.1829C203.281 64.4709 203.263 64.7589 203.239 65.0469C203.227 65.3349 203.215 65.5629 203.203 65.7309L208.369 57.6489H210.313V67.2969H208.837V61.6089C208.837 61.4169 208.837 61.1649 208.837 60.8529C208.849 60.5409 208.861 60.2349 208.873 59.9349C208.885 59.6229 208.897 59.3889 208.909 59.2329L203.779 67.2969H201.817V57.6489H203.311V63.5349ZM221.49 67.4769C220.638 67.4769 219.876 67.3029 219.204 66.9549C218.544 66.6069 218.022 66.0669 217.638 65.3349C217.266 64.6029 217.08 63.6669 217.08 62.5269C217.08 61.3389 217.278 60.3729 217.674 59.6289C218.07 58.8849 218.604 58.3389 219.276 57.9909C219.96 57.6429 220.734 57.4689 221.598 57.4689C222.09 57.4689 222.564 57.5229 223.02 57.6309C223.476 57.7269 223.848 57.8469 224.136 57.9909L223.65 59.3049C223.362 59.1969 223.026 59.0949 222.642 58.9989C222.258 58.9029 221.898 58.8549 221.562 58.8549C219.666 58.8549 218.718 60.0729 218.718 62.5089C218.718 63.6729 218.946 64.5669 219.402 65.1909C219.87 65.8029 220.56 66.1089 221.472 66.1089C222 66.1089 222.462 66.0549 222.858 65.9469C223.266 65.8389 223.638 65.7069 223.974 65.5509V66.9549C223.65 67.1229 223.29 67.2489 222.894 67.3329C222.51 67.4289 222.042 67.4769 221.49 67.4769ZM229.923 57.4869C231.099 57.4869 231.969 57.7449 232.533 58.2609C233.097 58.7769 233.379 59.5989 233.379 60.7269V67.2969H232.227L231.921 65.9289H231.849C231.429 66.4569 230.985 66.8469 230.517 67.0989C230.061 67.3509 229.425 67.4769 228.609 67.4769C227.733 67.4769 227.007 67.2489 226.431 66.7929C225.855 66.3249 225.567 65.5989 225.567 64.6149C225.567 63.6549 225.945 62.9169 226.701 62.4009C227.457 61.8729 228.621 61.5849 230.193 61.5369L231.831 61.4829V60.9069C231.831 60.1029 231.657 59.5449 231.309 59.2329C230.961 58.9209 230.469 58.7649 229.833 58.7649C229.329 58.7649 228.849 58.8429 228.393 58.9989C227.937 59.1429 227.511 59.3109 227.115 59.5029L226.629 58.3149C227.049 58.0869 227.547 57.8949 228.123 57.7389C228.699 57.5709 229.299 57.4869 229.923 57.4869ZM230.391 62.6349C229.191 62.6829 228.357 62.8749 227.889 63.2109C227.433 63.5469 227.205 64.0209 227.205 64.6329C227.205 65.1729 227.367 65.5689 227.691 65.8209C228.027 66.0729 228.453 66.1989 228.969 66.1989C229.785 66.1989 230.463 65.9769 231.003 65.5329C231.543 65.0769 231.813 64.3809 231.813 63.4449V62.5809L230.391 62.6349ZM243.522 57.6489V65.9649H244.926V70.6449H243.396V67.2969H236.682V70.6449H235.17V65.9649H235.944C236.772 64.8249 237.39 63.5289 237.798 62.0769C238.218 60.6129 238.434 59.1369 238.446 57.6489H243.522ZM239.85 58.8909C239.802 59.7069 239.676 60.5529 239.472 61.4289C239.268 62.2929 239.004 63.1209 238.68 63.9129C238.368 64.7049 238.002 65.3889 237.582 65.9649H241.992V58.8909H239.85ZM250.471 57.4869C251.647 57.4869 252.517 57.7449 253.081 58.2609C253.645 58.7769 253.927 59.5989 253.927 60.7269V67.2969H252.775L252.469 65.9289H252.397C251.977 66.4569 251.533 66.8469 251.065 67.0989C250.609 67.3509 249.973 67.4769 249.157 67.4769C248.281 67.4769 247.555 67.2489 246.979 66.7929C246.403 66.3249 246.115 65.5989 246.115 64.6149C246.115 63.6549 246.493 62.9169 247.249 62.4009C248.005 61.8729 249.169 61.5849 250.741 61.5369L252.379 61.4829V60.9069C252.379 60.1029 252.205 59.5449 251.857 59.2329C251.509 58.9209 251.017 58.7649 250.381 58.7649C249.877 58.7649 249.397 58.8429 248.941 58.9989C248.485 59.1429 248.059 59.3109 247.663 59.5029L247.177 58.3149C247.597 58.0869 248.095 57.8949 248.671 57.7389C249.247 57.5709 249.847 57.4869 250.471 57.4869ZM250.939 62.6349C249.739 62.6829 248.905 62.8749 248.437 63.2109C247.981 63.5469 247.753 64.0209 247.753 64.6329C247.753 65.1729 247.915 65.5689 248.239 65.8209C248.575 66.0729 249.001 66.1989 249.517 66.1989C250.333 66.1989 251.011 65.9769 251.551 65.5329C252.091 65.0769 252.361 64.3809 252.361 63.4449V62.5809L250.939 62.6349Z" fill="white"/>
</svg>
